<?xml version="1.0" encoding="utf-8"?>
<!-- Generator: Adobe Illustrator 22.1.0, SVG Export Plug-In . SVG Version: 6.00 Build 0)  -->
<svg version="1.1" id="NEST_x5F_Logo_x5F_RGB" xmlns="http://www.w3.org/2000/svg" xmlns:xlink="http://www.w3.org/1999/xlink"
	 x="0px" y="0px" viewBox="0 0 293 327" style="enable-background:new 0 0 293 327;" xml:space="preserve">
<style type="text/css">
	.st0{fill:#FF8200;}
	.st1{fill:#FFFFFF;}
</style>
<path class="st0" d="M239.6,17.4c60.8,37.5,64.3,142.3,10.1,230.3c-54.2,87.9-140.5,83.4-186.1,55.4c-43.9-27-88.4-103.2-34.3-191.1
	C83.6,24,178.8-20.1,239.6,17.4L239.6,17.4z"/>
<path class="st1" d="M24.5,152.5h18.1v7.7c2.6-5.4,9.2-9,17.6-9c15,0,23.2,9.6,23.2,25.4v15.5c0,4.5,0.9,6.4,4,6.4
	c0.7,0,1.7-0.1,1.9-0.1v15.3c-0.6,0.2-3.2,0.9-7.9,0.9c-9.7,0-16.2-4.6-16.2-17.5v-18.2c0-7.1-3.8-11.6-10.9-11.6
	c-6.8,0-11.8,5-11.8,12.2v34.4h-18V152.5z"/>
<path class="st1" d="M24.5,152.5h18.1v7.7c2.6-5.4,9.2-9,17.6-9c15,0,23.2,9.6,23.2,25.4v15.5c0,4.5,0.9,6.4,4,6.4
	c0.7,0,1.7-0.1,1.9-0.1v15.3c-0.6,0.2-3.2,0.9-7.9,0.9c-9.7,0-16.2-4.6-16.2-17.5v-18.2c0-7.1-3.8-11.6-10.9-11.6
	c-6.8,0-11.8,5-11.8,12.2v34.4h-18V152.5z"/>
<path class="st1" d="M93.3,183c0-19.6,14.1-32.1,33.2-32.1c19,0,31.5,13.9,31.5,31.1c0,0,0,3-0.2,5.8h-46.3c0.4,7.3,6.7,12,16.3,12
	c6.3,0,10.7-1.9,15-6l10.6,10.1c-8.2,8.4-17,11.2-26.4,11.2c-20,0-33.6-12.5-33.6-31.8V183H93.3z M139.8,176.1
	c0-5.6-6-10.2-13.3-10.2c-7.9,0-14.4,4.5-14.8,10.2H139.8z"/>
<path class="st1" d="M169.5,193.4c3.3,3.9,9.6,6.7,16.8,6.7c6.4,0,9.2-2.1,9.2-5c0-4.1-8.4-4.5-17.8-7.7c-8.5-2.9-14.1-7.8-14.1-17
	c0-13.1,11.4-19.7,23.8-19.7c10.9,0,18,3.8,22.6,7.9l-8.6,11.9c-2.7-2.2-7.3-4.5-14.5-4.5c-4.1,0-6.1,1.8-6.1,3.9
	c0,4.1,5,3.4,16.8,7.5c11.1,3.8,15.1,9.6,15.1,17.4c0,11.8-8.3,20.7-27,20.7c-13.7,0-22.1-5.2-26.8-10.9L169.5,193.4z"/>
<path class="st1" d="M223.5,168.9h-8v-16.4h8V134h17.6v18.5h13.6v16.4h-13.6v21.9c0,6,2.4,8.2,7.8,8.2c1.3,0,3-0.2,4.6-0.5v16.1
	c-2.1,0.5-5.5,0.9-8.9,0.9c-9,0-21.2-2.7-21.2-21.9v-24.7H223.5z"/>
</svg>
